HIERARCHY
ROOT hip
{
  OFFSET 0 0 0
  CHANNELS 6 Xposition Yposition Zposition Zrotation Yrotation Xrotation
  JOINT abdomen
  {
    OFFSET 0 20.6881 -0.73152
    CHANNELS 3 Zrotation Xrotation Yrotation
    JOINT chest
    {
      OFFSET 0 11.7043 -0.48768
      CHANNELS 3 Zrotation Xrotation Yrotation
      JOINT neck
      {
        OFFSET 0 22.1894 -2.19456
        CHANNELS 3 Zrotation Xrotation Yrotation
        JOINT head
        {
          OFFSET -0.24384 7.07133 1.2192
          CHANNELS 3 Zrotation Xrotation Yrotation
          JOINT leftEye
          {
            OFFSET 4.14528 8.04674 8.04672
            CHANNELS 3 Zrotation Xrotation Yrotation
            End Site
            {
              OFFSET 1 0 0
            }
          }
          JOINT rightEye
          {
            OFFSET -3.6576 8.04674 8.04672
            CHANNELS 3 Zrotation Xrotation Yrotation
            End Site
            {
              OFFSET 1 0 0
            }
          }
        }
      }
      JOINT rCollar
      {
        OFFSET -2.68224 19.2634 -4.8768
        CHANNELS 3 Zrotation Xrotation Yrotation
        JOINT rShldr
        {
          OFFSET -8.77824 -1.95073 1.46304
          CHANNELS 3 Zrotation Xrotation Yrotation
          JOINT rForeArm
          {
            OFFSET -28.1742 -1.7115 0.48768
            CHANNELS 3 Zrotation Xrotation Yrotation
            JOINT rHand
            {
              OFFSET -22.5879 0.773209 7.07136
              CHANNELS 3 Zrotation Xrotation Yrotation
              JOINT rThumb1
              {
                OFFSET -1.2192 -0.487915 3.41376
                CHANNELS 3 Zrotation Xrotation Yrotation
                JOINT rThumb2
                {
                  OFFSET -3.37035 -0.52449 3.41376
                  CHANNELS 3 Zrotation Xrotation Yrotation
                  End Site
                  {
                    OFFSET -1.78271 -1.18214 1.43049
                  }
                }
              }
              JOINT rIndex1
              {
                OFFSET -7.75947 0.938293 5.60832
                CHANNELS 3 Zrotation Xrotation Yrotation
                JOINT rIndex2
                {
                  OFFSET -2.54057 -0.884171 1.56538
                  CHANNELS 3 Zrotation Xrotation Yrotation
                  End Site
                  {
                    OFFSET -1.62519 -0.234802 1.16502
                  }
                }
              }
              JOINT rMid1
              {
                OFFSET -8.24714 1.18213 3.41376
                CHANNELS 3 Zrotation Xrotation Yrotation
                JOINT rMid2
                {
                  OFFSET -3.10165 -0.590103 1.0647
                  CHANNELS 3 Zrotation Xrotation Yrotation
                  End Site
                  {
                    OFFSET -2.48547 -0.328903 0.83742
                  }
                }
              }
              JOINT rRing1
              {
                OFFSET -8.82822 0.546677 1.51678
                CHANNELS 3 Zrotation Xrotation Yrotation
                JOINT rRing2
                {
                  OFFSET -2.60934 -0.819778 -0.0198488
                  CHANNELS 3 Zrotation Xrotation Yrotation
                  End Site
                  {
                    OFFSET -2.33842 -0.294052 0.168128
                  }
                }
              }
              JOINT rPinky1
              {
                OFFSET -8.27202 -0.0477905 -0.4584
                CHANNELS 3 Zrotation Xrotation Yrotation
                JOINT rPinky2
                {
                  OFFSET -1.82734 -0.647385 -0.700984
                  CHANNELS 3 Zrotation Xrotation Yrotation
                  End Site
                  {
                    OFFSET -1.69225 -0.51767 -0.607171
                  }
                }
              }
            }
          }
        }
      }
      JOINT lCollar
      {
        OFFSET 2.68224 19.2634 -4.8768
        CHANNELS 3 Zrotation Xrotation Yrotation
        JOINT lShldr
        {
          OFFSET 8.77824 -1.95073 1.46304
          CHANNELS 3 Zrotation Xrotation Yrotation
          JOINT lForeArm
          {
            OFFSET 28.1742 -1.7115 0.48768
            CHANNELS 3 Zrotation Xrotation Yrotation
            JOINT lHand
            {
              OFFSET 22.5879 0.773209 7.07136
              CHANNELS 3 Zrotation Xrotation Yrotation
              JOINT lThumb1
              {
                OFFSET 1.2192 -0.487915 3.41376
                CHANNELS 3 Zrotation Xrotation Yrotation
                JOINT lThumb2
                {
                  OFFSET 3.37035 -0.52449 3.41376
                  CHANNELS 3 Zrotation Xrotation Yrotation
                  End Site
                  {
                    OFFSET 1.78271 -1.18214 1.43049
                  }
                }
              }
              JOINT lIndex1
              {
                OFFSET 7.75947 0.938293 5.60832
                CHANNELS 3 Zrotation Xrotation Yrotation
                JOINT lIndex2
                {
                  OFFSET 2.54057 -0.884171 1.56538
                  CHANNELS 3 Zrotation Xrotation Yrotation
                  End Site
                  {
                    OFFSET 1.62519 -0.234802 1.16502
                  }
                }
              }
              JOINT lMid1
              {
                OFFSET 8.24714 1.18213 3.41376
                CHANNELS 3 Zrotation Xrotation Yrotation
                JOINT lMid2
                {
                  OFFSET 3.10165 -0.590103 1.0647
                  CHANNELS 3 Zrotation Xrotation Yrotation
                  End Site
                  {
                    OFFSET 2.48547 -0.328903 0.83742
                  }
                }
              }
              JOINT lRing1
              {
                OFFSET 8.82822 0.546677 1.51678
                CHANNELS 3 Zrotation Xrotation Yrotation
                JOINT lRing2
                {
                  OFFSET 2.60934 -0.819778 -0.0198488
                  CHANNELS 3 Zrotation Xrotation Yrotation
                  End Site
                  {
                    OFFSET 2.33842 -0.294052 0.168128
                  }
                }
              }
              JOINT lPinky1
              {
                OFFSET 8.27202 -0.0477905 -0.4584
                CHANNELS 3 Zrotation Xrotation Yrotation
                JOINT lPinky2
                {
                  OFFSET 1.82734 -0.647385 -0.700984
                  CHANNELS 3 Zrotation Xrotation Yrotation
                  End Site
                  {
                    OFFSET 1.69225 -0.51767 -0.607171
                  }
                }
              }
            }
          }
        }
      }
    }
  }
  JOINT rButtock
  {
    OFFSET -8.77824 4.35084 1.2192
    CHANNELS 3 Zrotation Xrotation Yrotation
    JOINT rThigh
    {
      OFFSET 0 -1.70687 -2.19456
      CHANNELS 3 Zrotation Xrotation Yrotation
      JOINT rShin
      {
        OFFSET 0 -36.8199 0.73152
        CHANNELS 3 Zrotation Xrotation Yrotation
        JOINT rFoot
        {
          OFFSET 0.73152 -45.1104 -5.12064
          CHANNELS 3 Zrotation Xrotation Yrotation
          End Site
          {
            OFFSET -1.1221 -3.69964 12.103
          }
        }
      }
    }
  }
  JOINT lButtock
  {
    OFFSET 8.77824 4.35084 1.2192
    CHANNELS 3 Zrotation Xrotation Yrotation
    JOINT lThigh
    {
      OFFSET 0 -1.70687 -2.19456
      CHANNELS 3 Zrotation Xrotation Yrotation
      JOINT lShin
      {
        OFFSET 0 -36.8199 0.73152
        CHANNELS 3 Zrotation Xrotation Yrotation
        JOINT lFoot
        {
          OFFSET -0.73152 -45.1104 -5.12064
          CHANNELS 3 Zrotation Xrotation Yrotation
          End Site
          {
            OFFSET 1.1221 -3.69964 12.103
          }
        }
      }
    }
  }
}
MOTION
Frames:	7
Frame Time:	0.00833333
-1.51173 83.9958 -167.43 0.0 0.0 0.0 -1.70022 -0.00276351 -0.0463329 -0.469053 0.0019667 -0.0812257 -7.60327e-14 0.0 7.45443e-17 -2.29189e-13 3.18055e-15 2.73329e-16 -0.0 0.0 0.0 -0.0 0.0 0.0 -3.81199e-14 -5.43552e-17 1.49089e-16 -8.00945e-13 -1.59028e-15 -1.19271e-15 -1.37975e-11 4.09616e-12 1.52667e-13 -1.58098e-10 -4.36014e-12 -1.30403e-13 -3.72893e-10 -5.661e-13 1.01778e-13 -6.43976e-10 -9.7643e-13 1.88448e-13 -3.72888e-10 -5.64946e-13 9.22361e-14 7.73091 5.47488 0.417314 -3.72892e-10 -5.66139e-13 1.01778e-13 2.90554 0.965183 0.102902 -3.72885e-10 -5.65443e-13 9.54166e-14 10.2786 0.731801 0.0259123 -3.72895e-10 -5.64946e-13 9.85972e-14 2.22167 -0.733487 -0.20892 -3.8216e-14 -5.62964e-17 -9.93923e-17 -8.04516e-13 -1.30452e-15 -2.98177e-15 -1.38299e-11 -4.16593e-12 1.01778e-13 -1.58073e-10 3.92175e-12 -7.63333e-14 -3.72904e-10 -5.26344e-13 8.26944e-14 -6.43971e-10 -9.06458e-13 1.57437e-13 -3.72909e-10 -5.23201e-13 9.22361e-14 -7.73091 5.47488 -0.417314 -3.72906e-10 -5.25487e-13 8.5875e-14 -2.90554 0.965183 -0.102902 -3.7291e-10 -5.25984e-13 8.74653e-14 -10.2786 0.731801 -0.0259123 -3.72899e-10 -5.25189e-13 8.5875e-14 -2.22167 -0.733487 0.20892 -2.03217e-16 0.0 -3.88251e-19 -0.815204 -1.92421 -0.00353337 -0.00895492 -2.0786 -0.0737777 -0.474578 3.99777 0.134765 2.03217e-16 0.0 3.88251e-19 -1.77354 -6.84759 0.16953 -0.00326693 6.8397 -0.086437 0.504662 0.0029465 -0.057351
-3.50924 82.8186 -166.967 -7.3149 -5.1411 -2.286 0.949157 3.2473 1.07238 -0.795354 -0.742749 0.295752 -0.19636 -0.700045 -0.905457 0.487953 -1.43543 -1.70287 -0.0 0.0 0.0 -0.0 0.0 0.0 2.51042e-14 8.7979e-16 8.45961e-14 21.2012 5.57161 3.22441 -4.16258 -1.88006 6.51377 0.000619507 0.552423 0.0776249 -6.26141e-10 4.23842e-10 8.6499e-11 -1.08019e-09 7.3e-10 1.51007e-10 -6.26135e-10 4.23841e-10 8.64895e-11 7.73091 5.47488 0.417314 -6.26138e-10 4.2384e-10 8.64988e-11 2.90554 0.965183 0.102902 -6.26132e-10 4.23841e-10 8.64953e-11 10.2786 0.731801 0.0259123 -6.26143e-10 4.23843e-10 8.64993e-11 2.22167 -0.733487 -0.20892 2.49885e-14 8.78237e-16 8.43375e-14 -21.5932 6.91181 0.115555 3.90428 -1.71551 -6.1601 -0.00110819 -0.738922 0.103818 -5.22666e-10 -5.92337e-10 -7.87207e-11 -9.02344e-10 -1.0248e-09 -1.35972e-10 -5.22676e-10 -5.92337e-10 -7.8713e-11 -7.73091 5.47488 -0.417314 -5.22672e-10 -5.92339e-10 -7.87223e-11 -2.90554 0.965183 -0.102902 -5.22676e-10 -5.92339e-10 -7.8719e-11 -10.2786 0.731801 -0.0259123 -5.22662e-10 -5.92337e-10 -7.87221e-11 -2.22167 -0.733487 0.20892 -2.03217e-16 0.0 -3.88251e-19 2.90744 -3.27626 1.67433 -0.0013318 5.87362 0.0499622 -0.604 -1.01512 -1.32185 2.03217e-16 0.0 3.88251e-19 1.10156 -13.9188 0.510624 0.0467489 15.8004 -0.169409 0.617374 -0.75995 1.26855
-3.57508 82.9495 -166.212 -7.5092 -5.5406 -2.1552 3.61503 6.68363 2.26501 -1.12782 -1.53474 0.694228 -0.42482 -1.42559 -1.86093 0.908979 -2.95923 -3.5035 -0.0 0.0 0.0 -0.0 0.0 0.0 9.60769e-14 2.16266e-15 1.81658e-13 42.9366 11.3937 6.70808 -8.09738 -3.78367 13.4159 -0.000355287 1.13856 0.160012 -9.57549e-10 9.68191e-10 1.71849e-10 -1.65137e-09 1.66803e-09 3.00309e-10 -9.57542e-10 9.68187e-10 1.71839e-10 7.73091 5.47488 0.417314 -9.57545e-10 9.68186e-10 1.71848e-10 2.90554 0.965183 0.102902 -9.57539e-10 9.68187e-10 1.71848e-10 10.2786 0.731801 0.0259123 -9.57553e-10 9.68191e-10 1.71853e-10 2.22167 -0.733487 -0.20892 9.59398e-14 2.16149e-15 1.81391e-13 -44.4429 14.2258 0.241571 7.6384 -3.4665 -12.6982 0.000636495 -1.52317 0.214063 -7.35899e-10 -1.28843e-09 -1.66808e-10 -1.27039e-09 -2.22913e-09 -2.88151e-10 -7.35914e-10 -1.28843e-09 -1.66802e-10 -7.73091 5.47488 -0.417314 -7.35909e-10 -1.28844e-09 -1.66815e-10 -2.90554 0.965183 -0.102902 -7.35912e-10 -1.28844e-09 -1.6681e-10 -10.2786 0.731801 -0.0259123 -7.35896e-10 -1.28843e-09 -1.66814e-10 -2.22167 -0.733487 0.20892 -2.03217e-16 0.0 -3.88251e-19 6.92897 -4.73096 3.44807 -0.0310541 14.3031 0.187044 -1.01472 -6.30166 -2.85761 2.03217e-16 0.0 3.88251e-19 4.23831 -21.3902 0.943125 0.132589 25.4077 -0.275028 0.775688 -1.57608 2.65928
-3.59834 83.0071 -165.471 -7.5691 -5.7903 -2.0424 5.86271 9.73277 3.35294 -1.41854 -2.23184 1.05043 -0.655467 -2.09804 -2.71799 1.20765 -4.29105 -5.12141 -0.0 0.0 0.0 -0.0 0.0 0.0 1.51552e-13 2.74808e-15 2.5349e-13 61.6638 16.4986 10.0451 -11.2282 -5.3492 19.6197 -0.00263364 1.65726 0.232961 -1.13264e-09 1.27266e-09 2.59293e-10 -1.95263e-09 2.19195e-09 4.52644e-10 -1.13263e-09 1.27265e-09 2.59284e-10 7.73091 5.47488 0.417314 -1.13263e-09 1.27265e-09 2.59293e-10 2.90554 0.965183 0.102902 -1.13263e-09 1.27265e-09 2.59295e-10 10.2786 0.731801 0.0259123 -1.13264e-09 1.27266e-09 2.59301e-10 2.22167 -0.733487 -0.20892 1.51397e-13 2.7473e-15 2.53211e-13 -64.8683 20.7351 0.36798 10.6241 -4.90903 -18.5425 0.00471389 -2.21674 0.31166 -8.22192e-10 -1.77596e-09 -2.36328e-10 -1.41909e-09 -3.07259e-09 -4.0823e-10 -8.22211e-10 -1.77596e-09 -2.36324e-10 -7.73091 5.47488 -0.417314 -8.22205e-10 -1.77597e-09 -2.36339e-10 -2.90554 0.965183 -0.102902 -8.22207e-10 -1.77597e-09 -2.36332e-10 -10.2786 0.731801 -0.0259123 -8.22188e-10 -1.77596e-09 -2.36338e-10 -2.22167 -0.733487 0.20892 -2.03217e-16 0.0 -3.88251e-19 10.5911 -5.9615 5.04922 -0.0945813 21.7778 0.31935 -1.63673 -11.0112 -4.31336 2.03217e-16 0.0 3.88251e-19 7.13684 -28.0566 1.30345 0.240825 33.7214 -0.381585 0.948705 -2.28095 3.92314
-3.6061 82.9992 -164.696 -7.6707 -5.6654 -1.9906 7.33829 11.8279 4.13782 -1.62594 -2.69206 1.30023 -0.847124 -2.63965 -3.32763 1.38365 -5.15756 -6.26995 -0.0 0.0 0.0 -0.0 0.0 0.0 1.68285e-13 1.58989e-15 2.62247e-13 74.2286 20.0067 12.671 -13.2231 -6.34435 24.0037 -0.00494457 2.00736 0.282233 -9.16919e-10 9.77427e-10 3.51976e-10 -1.57911e-09 1.68058e-09 6.12562e-10 -9.1691e-10 9.77421e-10 3.51967e-10 7.73091 5.47488 0.417314 -9.16913e-10 9.7742e-10 3.51976e-10 2.90554 0.965183 0.102902 -9.16909e-10 9.77421e-10 3.51979e-10 10.2786 0.731801 0.0259123 -9.16923e-10 9.77428e-10 3.51986e-10 2.22167 -0.733487 -0.20892 1.6812e-13 1.5895e-15 2.61949e-13 -79.171 25.2327 0.475862 12.5052 -5.80918 -22.5919 0.00884076 -2.68361 0.377435 -5.91134e-10 -1.74207e-09 -2.59428e-10 -1.01943e-09 -3.01386e-09 -4.48061e-10 -5.91154e-10 -1.74207e-09 -2.59425e-10 -7.73091 5.47488 -0.417314 -5.91148e-10 -1.74208e-09 -2.59441e-10 -2.90554 0.965183 -0.102902 -5.91151e-10 -1.74208e-09 -2.59434e-10 -10.2786 0.731801 -0.0259123 -5.9113e-10 -1.74207e-09 -2.59441e-10 -2.22167 -0.733487 0.20892 -2.03217e-16 0.0 -3.88251e-19 13.1787 -6.64882 6.20126 -0.162013 26.8659 0.416206 -2.25707 -14.3065 -5.48485 2.03217e-16 0.0 3.88251e-19 9.17409 -32.7161 1.36245 0.322016 38.8017 -0.442921 1.08271 -2.71224 4.86705
-3.55237 83.0201 -163.913 -7.609 -5.6579 -1.8507 7.85856 12.6226 4.47319 -1.73311 -2.80332 1.40231 -0.950691 -3.1162 -3.59988 1.4504 -5.31933 -6.7761 -0.0 0.0 0.0 -0.0 0.0 0.0 1.20763e-13 -5.04705e-15 1.68514e-13 78.797 21.3865 14.1231 -13.9849 -6.72323 25.7785 -0.00599985 2.13786 0.300608 4.59226e-11 -4.76978e-10 4.99883e-10 8.48913e-11 -8.32621e-10 8.65227e-10 4.59305e-11 -4.76983e-10 4.99873e-10 7.73091 5.47488 0.417314 4.59266e-11 -4.76983e-10 4.99885e-10 2.90554 0.965183 0.102902 4.59316e-11 -4.76983e-10 4.99887e-10 10.2786 0.731801 0.0259123 4.59177e-11 -4.76977e-10 4.99894e-10 2.22167 -0.733487 -0.20892 1.20601e-13 -5.04699e-15 1.68182e-13 -84.828 26.9199 0.467278 13.1527 -6.10076 -24.076 0.0106039 -2.84506 0.400201 2.65902e-10 -8.20779e-10 -2.08284e-10 4.61955e-10 -1.41976e-09 -3.59441e-10 2.65884e-10 -8.20785e-10 -2.0828e-10 -7.73091 5.47488 -0.417314 2.6589e-10 -8.20787e-10 -2.08294e-10 -2.90554 0.965183 -0.102902 2.65885e-10 -8.20786e-10 -2.08288e-10 -10.2786 0.731801 -0.0259123 2.65907e-10 -8.20782e-10 -2.08295e-10 -2.22167 -0.733487 0.20892 -2.03217e-16 0.0 -3.88251e-19 14.1928 -6.60699 6.71118 -0.193425 28.6182 0.443772 -2.62782 -15.638 -6.19708 2.03217e-16 0.0 3.88251e-19 9.87734 -34.5911 0.950338 0.321373 39.3386 -0.408021 1.12404 -2.74563 5.32405
-3.54675 83.0401 -163.15 -7.7443 -5.7287 -1.6659 7.72632 12.4902 4.47871 -1.77037 -2.66623 1.39866 -0.986497 -3.54117 -3.63042 1.45814 -4.98366 -6.82019 -0.0 0.0 0.0 -0.0 0.0 0.0 2.78216e-14 -1.54527e-14 2.24877e-15 77.833 21.2976 14.6524 -13.9489 -6.71818 25.679 -0.00585048 2.11071 0.296787 1.5329e-09 -2.74414e-09 6.84956e-10 2.6542e-09 -4.74939e-09 1.18023e-09 1.53291e-09 -2.74415e-09 6.84946e-10 7.73091 5.47488 0.417314 1.5329e-09 -2.74415e-09 6.84961e-10 2.90554 0.965183 0.102902 1.53291e-09 -2.74415e-09 6.84959e-10 10.2786 0.731801 0.0259123 1.53289e-09 -2.74414e-09 6.84967e-10 2.22167 -0.733487 -0.20892 2.76722e-14 -1.54522e-14 1.87293e-15 -84.3029 26.5996 0.374097 12.9869 -6.00056 -23.72 0.0101429 -2.78779 0.392131 1.56141e-09 7.26868e-10 -1.04547e-10 2.70104e-09 1.25807e-09 -1.79837e-10 1.5614e-09 7.26865e-10 -1.04543e-10 -7.73091 5.47488 -0.417314 1.56141e-09 7.26863e-10 -1.04553e-10 -2.90554 0.965183 -0.102902 1.5614e-09 7.26863e-10 -1.04549e-10 -10.2786 0.731801 -0.0259123 1.56142e-09 7.26867e-10 -1.04556e-10 -2.22167 -0.733487 0.20892 -2.03217e-16 0.0 -3.88251e-19 14.0678 -6.04625 6.76099 -0.189623 27.9875 0.416159 -2.74835 -15.5753 -6.55502 2.03217e-16 0.0 3.88251e-19 9.62427 -34.4724 0.194079 0.265028 36.631 -0.305234 1.09138 -2.49668 5.4346
